<?xml version="1.0" encoding="UTF-8" standalone="no"?>
<svg version="1.1" xmlns="http://www.w3.org/2000/svg" xmlns:xlink="http://www.w3.org/1999/xlink" width="921" height="478">
	<g id="dp_dp001" transform="matrix(1,0,0,1,3.24933,0.742667)">
		<path id="dp_path002" fill="none" fill-rule="evenodd" d="M 205.653,202.773 L 228.32,173.44 L 201.653,154.773 L 210.987,122.773 L 186.987,112.107 L 152.32,84.1067 L 122.987,76.1067"/>
		<path id="dp_path003" fill="none" fill-rule="evenodd" d="M 201.333,154.667 L 108,149.333 L 108,130.667 L 93.3333,104 L 53.3333,102.667 L 49.3333,57.3333 L 10.6667,46.6667 L 0,0"/>
		<path id="dp_path004" fill="none" fill-rule="evenodd" d="M 54.6667,102.667 L 29.3333,117.333 L 14.6667,102.667 L 0,114.667"/>
		<path id="dp_path005" fill="none" fill-rule="evenodd" d="M 49.3333,57.3333 L 46.6667,37.3333 L 72,37.3333 L 88,21.3333"/>
		<path id="dp_path006" fill="none" fill-rule="evenodd" d="M 133,318.248 L 118,337.248 L 189,345.248 L 188,360.248 L 219,363.248 L 252,389.248"/>
		<path id="dp_path007" fill="none" fill-rule="evenodd" d="M 167,217.248 L 148,221.248 L 161,237.248 L 136,238.248 L 132,248.248 L 118,244.248 L 109,258.248 L 134,277.248 L 103,279.248 L 109,288.248 L 90,301.248 L 133,318.248"/>
		<path id="dp_path008" fill="none" fill-rule="evenodd" d="M 133,277.248 L 155,280.248 L 158,290.248 L 167,289.248 L 173,296.248 L 181,290.248 L 176,279.248 L 186,282.248 L 200,276.248 L 211,281.248 L 223,283.248"/>
		<path id="dp_path009" fill="none" fill-rule="evenodd" d="M 180.333,289.581 L 201.333,297.581 L 196.333,309.581 L 214.333,307.581 L 210.333,318.581 L 232.333,318.581"/>
		<path id="dp_path010" fill="none" fill-rule="evenodd" d="M 110.667,258.915 L 91.6667,248.915 L 77.6667,263.915 L 72.6667,252.915 L 35.6667,276.915 L 29.6667,264.915 L 6.66667,287.915"/>
		<path id="dp_path011" fill="none" fill-rule="evenodd" d="M 254,168.033 L 225,146.033 L 239,148.033 L 245,137.033 L 264,137.033 L 252,120.033 L 269,127.033 L 263,97.0333"/>
		<path id="dp_path012" fill="none" fill-rule="evenodd" d="M 269.408,127.197 L 286.408,147.197 L 288.408,124.197 L 297.408,132.197 L 303.408,127.197 L 313.408,142.197 L 326.408,139.197 L 334.408,150.197 L 349.408,142.197"/>
		<path id="dp_path013" fill="none" fill-rule="evenodd" d="M 303.347,127.963 L 302.347,113.963 L 312.347,122.963 L 314.347,110.963 L 326.347,110.963"/>
		<path id="dp_path014" fill="none" fill-rule="evenodd" d="M 366,181.033 L 390,182.033 L 374,139.033 L 366,131.033 L 388,119.033 L 372,111.033 L 390,72.0333 L 356,103.033 L 358,78.0333 L 339,64.0333 L 353,50.0333 L 340,43.0333 L 346,32.0333 L 337,30.0333"/>
		<path id="dp_path015" fill="none" fill-rule="evenodd" d="M 339.2,64.4333 L 330.2,78.4333 L 326.2,65.4333 L 312.2,72.4333 L 310.2,58.4333 L 287.2,46.4333"/>
		<path id="dp_path016" fill="none" fill-rule="evenodd" d="M 257.844,270.467 L 258.892,302.467 L 279.865,305.467 L 292.449,334.467 L 324.957,336.467 L 355.368,356.467 L 395.216,358.467"/>
		<path id="dp_path017" fill="none" fill-rule="evenodd" d="M 279.399,305.367 L 353.852,279.367 L 358.047,300.367 L 382.165,314.367 L 420.965,306.367 L 439.84,309.367"/>
		<path id="dp_path018" fill="none" fill-rule="evenodd" d="M 420.668,306.088 L 446.884,357.088 L 484.635,355.088 L 516.095,391.088"/>
		<path id="dp_path019" fill="none" fill-rule="evenodd" d="M 446.817,356.797 L 455.207,375.797 L 445.768,383.797 L 446.817,398.797"/>
		<path id="dp_path020" fill="none" fill-rule="evenodd" d="M 679.864,278.681 L 699.439,319.46 L 645.608,308.043 L 629.297,324.355 L 585.253,329.248 L 570.572,347.192 L 536.316,370.029 L 524.899,397.759"/>
		<path id="dp_path021" fill="none" fill-rule="evenodd" d="M 629.669,324.059 L 634.564,377.889 L 610.096,374.627 L 575.841,400.727 L 579.103,431.72 L 566.053,415.408 L 508.96,433.351 L 474.704,426.825"/>
		<path id="dp_path022" fill="none" fill-rule="evenodd" d="M 509.153,433.617 L 502.628,458.085 L 473.267,458.085 L 435.748,474.397"/>
		<path id="dp_path023" fill="none" fill-rule="evenodd" d="M 448.161,164.833 L 485.336,183.233 L 519.916,140.833 L 536.341,134.433 L 551.039,95.2333 L 592.536,129.633 L 614.148,118.433 L 647.864,152.033 L 683.309,146.433 L 734.316,145.633 L 761.98,132.033"/>
		<path id="dp_path024" fill="none" fill-rule="evenodd" d="M 519.052,144.833 L 483.607,102.433 L 480.148,121.633 L 457.671,115.233 L 442.109,118.433 L 429.141,101.633 L 416.175,115.233 L 405.8,111.233"/>
		<path id="dp_path025" fill="none" fill-rule="evenodd" d="M 615.877,119.233 L 658.239,89.6333 L 683.309,108.833 L 710.109,84.8333 L 743.825,80.0333"/>
		<path id="dp_path026" fill="none" fill-rule="evenodd" d="M 710.109,85.6333 L 742.961,104.033 L 750.741,116.833 L 782.729,111.233 L 808.664,120.033"/>
		<path id="dp_path027" fill="none" fill-rule="evenodd" d="M 780.136,110.433 L 803.477,97.6333 L 821.632,101.633 L 834.6,99.2333"/>
		<path id="dp_path028" fill="none" fill-rule="evenodd" d="M 700.4,247.233 L 714,259.233 L 726.8,246.433 L 745.2,259.233 L 764.4,259.233 L 768.4,242.433 L 778.8,242.433 L 790.8,249.633 L 808.4,244.033 L 818.8,252.033 L 841.2,224.033 L 864.4,220.833 L 877.2,193.633 L 872.4,182.433 L 888.4,179.233 L 890,157.633 L 915.6,137.633"/>
		<path id="dp_path029" fill="none" fill-rule="evenodd" d="M 779.2,242.033 L 776,228.433 L 789.6,229.233 L 792.8,217.233 L 799.2,214.833 L 796,202.833 L 810.4,199.633 L 809.6,189.233 L 817.6,189.233"/>
		<path id="dp_path030" fill="none" fill-rule="evenodd" d="M 794,217.233 L 771.6,207.633 L 780.4,198.033 L 772.4,178.833"/>
		<path id="dp_path031" fill="none" fill-rule="evenodd" d="M 744,259.233 L 735.2,271.233 L 756.8,272.033 L 754.4,280.033 L 792.8,285.633 L 772,306.433 L 796.8,306.433"/>
		<path id="dp_path032" fill="none" fill-rule="evenodd" d="M 842.4,223.233 L 853.6,256.033 L 865.6,255.233 L 893.6,272.833"/>
	</g>
</svg>
