<?xml version="1.0" encoding="UTF-8" standalone="no"?>
<svg version="1.1" xmlns="http://www.w3.org/2000/svg" xmlns:xlink="http://www.w3.org/1999/xlink" width="312" height="312">
	<g id="img_border_001" transform="matrix(1,0,0,1,0.336,0.336)">
		<path id="img_border_path002" fill="black" fill-rule="evenodd" stroke="none" stroke-width="0" d="M 24.66,24.5587 L 24.66,286.553 L 286.452,286.553 L 286.452,24.5587 Z M 0,0 L 311.112,0 L 311.112,311.112 L 0,311.112 Z "/>
		<path id="img_border_path003" fill="none" fill-rule="evenodd" stroke="red" stroke-width="3.33333" d="M 11.86,11.7587 L 11.86,299.353 L 299.252,299.353 L 299.252,11.7587 L 11.86,11.7587"/>
		<path id="img_border_path004" fill="black" fill-rule="evenodd" stroke="none" stroke-width="0" d="M 0,292.935 C 0,282.896 8.13867,274.757 18.1787,274.757 C 28.2187,274.757 36.3573,282.896 36.3573,292.935 C 36.3573,302.973 28.2187,311.112 18.1787,311.112 C 8.13867,311.112 0,302.973 0,292.935 Z M 292.935,274.755 C 302.973,274.755 311.112,282.893 311.112,292.933 C 311.112,302.973 302.973,311.112 292.935,311.112 C 282.896,311.112 274.757,302.973 274.757,292.933 C 274.757,282.893 282.896,274.755 292.935,274.755 Z M 274.755,18.1773 C 274.755,8.13867 282.893,0 292.933,0 C 302.973,0 311.112,8.13867 311.112,18.1773 C 311.112,28.216 302.973,36.3547 292.933,36.3547 C 282.893,36.3547 274.755,28.216 274.755,18.1773 Z M 18.1773,0 C 28.216,0 36.3547,8.13867 36.3547,18.1787 C 36.3547,28.2187 28.216,36.3573 18.1773,36.3573 C 8.13867,36.3573 0,28.2187 0,18.1787 C 0,8.13867 8.13867,0 18.1773,0 Z "/>
		<path id="img_border_path005" fill="#ffa768" fill-rule="evenodd" stroke="none" stroke-width="0" d="M 18.1787,6.4 C 24.6827,6.4 29.956,11.6733 29.956,18.1787 C 29.956,24.684 24.6827,29.9573 18.1787,29.9573 C 11.6747,29.9573 6.40133,24.684 6.40133,18.1787 C 6.40133,11.6733 11.6747,6.4 18.1787,6.4 Z "/>
		<path id="img_border_path006" fill="#ffa768" fill-rule="evenodd" stroke="none" stroke-width="0" d="M 292.936,281.155 C 299.44,281.155 304.713,286.428 304.713,292.933 C 304.713,299.439 299.44,304.712 292.936,304.712 C 286.432,304.712 281.159,299.439 281.159,292.933 C 281.159,286.428 286.432,281.155 292.936,281.155 Z "/>
		<path id="img_border_path007" fill="#ffa768" fill-rule="evenodd" stroke="none" stroke-width="0" d="M 6.4,292.933 C 6.4,286.429 11.6733,281.156 18.1787,281.156 C 24.684,281.156 29.9573,286.429 29.9573,292.933 C 29.9573,299.437 24.684,304.711 18.1787,304.711 C 11.6733,304.711 6.4,299.437 6.4,292.933 Z "/>
		<path id="img_border_path008" fill="#ffa768" fill-rule="evenodd" stroke="none" stroke-width="0" d="M 281.155,18.176 C 281.155,11.672 286.428,6.39867 292.933,6.39867 C 299.439,6.39867 304.712,11.672 304.712,18.176 C 304.712,24.68 299.439,29.9533 292.933,29.9533 C 286.428,29.9533 281.155,24.68 281.155,18.176 Z "/>
	</g>
</svg>
